<svg width="300" height="487" viewBox="0 0 300 487" fill="none" xmlns="http://www.w3.org/2000/svg">
<g clip-path="url(#clip0_506_1827)">
<path d="M44.1321 301.18H256.046C261.003 301.18 265.262 304.702 266.192 309.572L297.657 474.322C298.873 480.689 293.993 486.59 287.51 486.59H12.5019C6.0157 486.59 1.1342 480.682 2.3572 474.312L17.7983 393.885L33.9873 309.562C34.9214 304.697 39.178 301.18 44.1321 301.18ZM184.574 439.265L179.979 415.925C179.026 411.082 174.779 407.59 169.843 407.59H131.12C126.18 407.59 121.932 411.087 120.982 415.935L116.412 439.275C115.162 445.655 120.047 451.59 126.549 451.59H174.438C180.944 451.59 185.83 445.648 184.574 439.265ZM203.692 372.59H95.227C93.0422 372.59 90.9413 373.431 89.3603 374.939C83.8102 380.233 87.557 389.59 95.227 389.59H203.692C211.373 389.59 215.115 380.21 209.543 374.924C207.963 373.425 205.869 372.59 203.692 372.59ZM70.51 339.26V332.92C70.51 327.215 65.8851 322.59 60.18 322.59H56.2508C51.2011 322.59 46.8915 326.241 46.0614 331.222L45.0047 337.562C43.9553 343.858 48.8108 349.59 55.1942 349.59H60.18C65.8851 349.59 70.51 344.965 70.51 339.26ZM62.51 379.26V372.92C62.51 367.215 57.8851 362.59 52.18 362.59H48.2508C43.2011 362.59 38.8915 366.241 38.0614 371.222L37.0047 377.562C35.9553 383.858 40.8108 389.59 47.1942 389.59H52.18C57.8851 389.59 62.51 384.965 62.51 379.26ZM262.629 381.04L252.037 326.193C251.352 322.646 247.969 320.288 244.404 320.872C240.839 321.455 238.385 324.77 238.868 328.35L246.328 383.71C246.95 388.323 251.258 391.512 255.851 390.76C260.445 390.008 263.511 385.611 262.629 381.04ZM212.046 337.607L211.012 331.259C210.197 326.261 205.88 322.59 200.816 322.59H196.824C191.119 322.59 186.494 327.215 186.494 332.92V339.269C186.494 344.974 191.119 349.599 196.824 349.599H201.851C208.219 349.599 213.07 343.893 212.046 337.607ZM162.229 338.126L161.523 331.777C160.94 326.547 156.519 322.59 151.256 322.59H148.246C142.982 322.59 138.56 326.548 137.979 331.78L137.274 338.128C136.594 344.247 141.384 349.599 147.541 349.599H151.963C158.12 349.599 162.91 344.246 162.229 338.126ZM116.51 339.26V332.92C116.51 327.215 111.885 322.59 106.18 322.59H102.251C97.2011 322.59 92.8915 326.241 92.0614 331.222L91.0047 337.562C89.9553 343.858 94.8108 349.59 101.194 349.59H106.18C111.885 349.59 116.51 344.965 116.51 339.26Z" fill="#510F0F"/>
</g>
<path d="M46.055 244.589L57 186L91.376 8.95405C92.3191 4.09703 96.5726 0.589966 101.52 0.589968L199.016 0.589997C203.988 0.589999 208.255 4.1302 209.172 9.0164L218.591 59.1689C219.786 65.5293 214.906 71.41 208.435 71.41H123.495C118.559 71.41 114.312 74.9017 113.357 79.745L94.8412 173.668C93.5822 180.054 98.4704 186 104.98 186H233.898C238.842 186 243.093 189.502 244.04 194.355L253.827 244.507C255.072 250.888 250.186 256.82 243.685 256.82H56.213C49.7454 256.82 44.8673 250.946 46.055 244.589Z" fill="#C71313"/>
<defs>
<clipPath id="clip0_506_1827">
<rect width="300" height="186" fill="white" transform="translate(0 300.59)"/>
</clipPath>
</defs>
</svg>
