<svg xmlns="http://www.w3.org/2000/svg" viewBox="-0.498 4.11617 14.29 10.76">
  <path d="M 3.132 10.78 c -1.194 2.465 1.333 4.302 3.68 4.074 s 6.259 -2.624 4.507 -7.317 c 0.44 4.706 -2.753 5.919 -4.418 5.804 s -2.792 -0.742 -2.856 -1.686 Z" fill="#870b0b"/>
  <path d="M 6.432 9.06 c 1.551 -0.675 2.215 -1.283 2.206 -2.115 s -1.32 -1.696 -2.739 -1.672 s -4.11 0.775 -4.613 5.126 c -0.037 1.746 -0.518 3.101 -1.784 4.148 c 1.23 -1.105 1.602 -2.404 1.612 -4.65 s 0.544 -5.082 5.029 -5.754 c 2.29 -0.261 4.601 1.431 4.446 2.969 s -1.322 2.242 -4.088 2.617 c -1.874 0.349 -2.52 0.982 -2.456 1.926 s 1.187 1.569 2.854 1.685 s 4.86 -1.098 4.42 -5.803 c 1.099 4.046 -1.809 6.669 -4.536 6.708 s -3.813 -1.331 -3.813 -2.818 s 2.171 -1.848 3.462 -2.367 Z" fill="#cd0404"/>
  <path d="M 6.432 9.06 c 1.551 -0.675 2.215 -1.283 2.206 -2.115 s -1.32 -1.696 -2.739 -1.672 s -4.11 0.775 -4.613 5.126 c -0.206 -4.098 2.683 -5.651 4.703 -5.817 s 3.542 1.306 3.522 2.293 s -1.141 2.014 -3.079 2.185 Z" fill="#b50a0a"/>

  <!-- <path d="M 13.43 14.536 c 0.298 -0.03 0.569 -0.468 0.142 -0.706 c 0.115 0.301 -0.03 0.483 -0.356 0.542 Z" fill="rose"/>
  <path d="M 13.355 13.75 c -0.778 0.046 -0.564 0.801 0.075 0.786 c -0.181 -0.148 -0.46 -0.539 -0.075 -0.786 Z" fill="red"/> -->
</svg>