<?xml version="1.0" standalone="no"?>
<!DOCTYPE svg PUBLIC "-//W3C//DTD SVG 20010904//EN"
 "http://www.w3.org/TR/2001/REC-SVG-20010904/DTD/svg10.dtd">
<svg version="1.0" xmlns="http://www.w3.org/2000/svg"
 width="700.000000pt" height="700.000000pt" viewBox="0 0 700.000000 700.000000"
 preserveAspectRatio="xMidYMid meet">
<metadata>
Created by potrace 1.14, written by Peter Selinger 2001-2017
</metadata>
<g transform="translate(0.000000,700.000000) scale(0.100000,-0.100000)"
fill="#000000" stroke="none">
<path d="M1822 6149 c-64 -25 -139 -96 -172 -164 l-25 -50 -5 -1185 -5 -1185
-780 -947 c-429 -521 -791 -969 -805 -995 -35 -67 -40 -176 -10 -255 18 -50
46 -82 233 -272 135 -137 228 -223 257 -238 l45 -23 2925 -3 c2078 -2 2938 1
2970 8 72 18 145 73 296 224 226 227 261 287 252 429 -7 114 -28 142 -294 408
l-234 234 0 -201 c0 -248 -8 -283 -84 -359 -96 -96 162 -88 -2464 -75 -1269 6
-2318 14 -2332 17 -77 18 -150 80 -186 158 -27 56 -32 149 -12 206 6 19 211
334 454 701 l443 667 643 3 643 3 47 24 c195 96 244 348 100 512 -17 19 -55
48 -84 65 l-53 29 -643 3 -643 3 3 712 c3 709 3 712 25 752 25 47 84 105 133
131 33 18 80 19 944 22 810 2 915 1 960 -14 47 -14 78 -42 354 -321 l302 -306
0 529 0 529 -28 60 c-31 65 -86 121 -154 157 l-43 23 -1460 2 c-1445 2 -1461
2 -1513 -18z"/>
</g>
</svg>
